<?xml version="1.0" standalone="no"?>
<!DOCTYPE svg PUBLIC "-//W3C//DTD SVG 20010904//EN"
 "http://www.w3.org/TR/2001/REC-SVG-20010904/DTD/svg10.dtd">
<svg version="1.0" xmlns="http://www.w3.org/2000/svg"
 width="1536.000000pt" height="1536.000000pt" viewBox="0 0 1536.000000 1536.000000"
 preserveAspectRatio="xMidYMid meet">
<metadata>
Created by potrace 1.14, written by Peter Selinger 2001-2017
</metadata>
<g transform="translate(0.000000,1536.000000) scale(0.100000,-0.100000)"
fill="#000000" stroke="none">
<path d="M10937 12034 c-1 -1 -69 -4 -152 -8 -82 -3 -172 -8 -200 -11 -27 -3
-72 -7 -100 -10 -27 -3 -63 -7 -80 -9 -16 -2 -52 -7 -79 -10 -83 -9 -127 -17
-256 -43 -69 -14 -132 -26 -140 -28 -8 -2 -35 -8 -60 -15 -25 -7 -54 -14 -65
-17 -34 -7 -50 -11 -55 -14 -3 -1 -9 -3 -15 -4 -5 -1 -30 -8 -55 -15 -25 -7
-49 -14 -55 -16 -130 -32 -385 -141 -492 -210 -108 -70 -197 -161 -209 -216
-1 -5 -2 -9 -4 -10 -15 -19 -22 -135 -11 -170 12 -35 86 -111 201 -208 156
-131 212 -219 216 -340 1 -47 -4 -78 -30 -180 -2 -8 -23 -76 -46 -150 -22 -74
-42 -139 -44 -145 -1 -5 -11 -37 -21 -70 -10 -33 -19 -66 -21 -73 -1 -8 -6
-21 -10 -30 -4 -9 -8 -21 -9 -27 -4 -16 -54 -181 -95 -315 -58 -187 -94 -304
-95 -310 -5 -21 -30 -105 -47 -155 -18 -53 -23 -71 -31 -110 -2 -5 -6 -15 -9
-21 -4 -6 -9 -23 -12 -38 -3 -16 -18 -69 -35 -120 -52 -162 -84 -271 -84 -283
0 -7 -3 -13 -7 -13 -3 0 -6 -8 -7 -17 -1 -10 -11 -47 -23 -83 -12 -36 -23 -72
-25 -80 -2 -8 -18 -60 -35 -115 -17 -55 -32 -107 -33 -115 -2 -8 -6 -21 -10
-27 -5 -7 -10 -21 -12 -32 -2 -10 -18 -65 -35 -122 -18 -57 -33 -108 -35 -114
-1 -5 -12 -44 -25 -85 -14 -41 -25 -77 -25 -80 -9 -37 -20 -75 -37 -124 -11
-32 -21 -63 -22 -70 -7 -29 -19 -72 -25 -81 -3 -5 -6 -14 -7 -20 -1 -5 -12
-44 -25 -85 -13 -41 -24 -77 -24 -80 -3 -15 -49 -163 -67 -215 -11 -33 -22
-69 -24 -80 -3 -16 -31 -109 -61 -205 -2 -8 -4 -16 -5 -17 0 -1 -20 -67 -45
-145 -24 -79 -48 -156 -53 -173 -4 -16 -27 -91 -50 -165 -23 -74 -43 -142 -45
-150 -2 -8 -4 -16 -5 -17 -2 -2 -4 -7 -5 -13 -1 -5 -3 -11 -5 -12 -1 -2 -3
-10 -5 -18 -1 -8 -17 -62 -35 -120 -18 -58 -33 -111 -33 -117 0 -7 -3 -13 -7
-13 -4 0 -7 -6 -7 -12 0 -12 -41 -154 -63 -218 -5 -14 -18 -59 -30 -100 -12
-41 -30 -100 -40 -130 -25 -78 -72 -231 -74 -244 -4 -16 -45 -155 -61 -201
-15 -46 -58 -185 -61 -200 -1 -5 -9 -29 -18 -53 -8 -23 -16 -46 -17 -50 -7
-33 -52 -136 -62 -143 -5 -3 -8 -9 -7 -13 1 -4 -14 -34 -35 -67 -65 -105 -174
-199 -354 -305 -110 -64 -184 -132 -216 -198 -35 -71 -36 -157 -4 -218 17 -32
71 -88 85 -88 6 0 17 -6 23 -14 7 -8 27 -18 44 -22 18 -3 38 -11 46 -18 8 -6
16 -10 18 -8 2 2 27 -1 56 -7 45 -9 91 -14 212 -24 17 -1 40 1 52 5 12 4 25 3
28 -2 4 -7 13 -6 25 0 13 7 21 7 25 0 4 -6 13 -7 24 -1 9 5 23 6 31 1 7 -4 24
-4 37 1 14 5 23 5 23 -1 0 -6 9 -6 25 0 16 6 26 6 31 -1 4 -7 10 -7 18 0 7 6
15 8 18 6 10 -11 48 -14 53 -4 4 5 14 5 26 -1 12 -7 19 -7 19 -1 0 7 8 7 23 2
12 -5 31 -5 42 -1 11 4 25 3 32 -2 7 -5 14 -5 18 2 4 7 12 7 26 0 12 -7 19 -7
19 -1 0 7 8 7 24 1 13 -5 26 -7 29 -4 8 8 88 10 93 2 3 -4 15 -3 28 2 15 5 27
5 34 -2 6 -6 12 -6 16 1 5 8 13 8 27 1 13 -8 19 -7 19 0 0 6 5 8 11 4 14 -8
138 -8 146 0 4 3 12 1 19 -5 8 -7 14 -7 19 1 4 7 12 7 26 0 13 -8 19 -7 19 0
0 6 5 8 11 5 14 -9 113 -10 127 -1 6 3 14 2 17 -4 5 -8 11 -8 19 -1 7 6 15 8
18 6 10 -11 48 -14 53 -4 4 5 14 5 26 -1 12 -7 19 -7 19 -1 0 7 8 7 23 2 12
-5 31 -5 42 -1 11 4 25 3 32 -2 7 -5 14 -5 18 2 4 7 12 7 26 0 12 -7 19 -7 19
-1 0 7 8 7 23 2 12 -5 31 -5 42 -1 11 4 25 3 32 -2 7 -5 14 -5 18 2 4 7 12 7
26 0 12 -7 19 -7 19 -1 0 7 8 7 23 2 12 -5 31 -5 42 -1 11 4 25 3 32 -2 7 -5
14 -5 18 2 4 7 12 7 26 0 12 -7 19 -7 19 -1 0 7 8 7 24 1 13 -5 26 -7 29 -4 8
8 88 10 93 2 3 -4 15 -3 28 2 15 5 27 5 34 -2 6 -6 12 -6 16 1 5 8 13 8 27 1
13 -8 19 -7 19 0 0 6 5 8 11 4 14 -8 138 -8 146 0 4 3 12 1 19 -5 8 -7 14 -7
19 1 4 7 12 7 26 0 13 -8 19 -7 19 0 0 6 5 8 11 5 14 -9 113 -10 127 -1 6 3
14 2 17 -4 5 -7 11 -8 19 -1 7 6 18 6 26 1 7 -4 24 -4 37 1 15 5 23 5 23 -2 0
-6 7 -6 19 1 14 7 22 7 26 0 4 -6 11 -7 17 -4 6 4 48 8 92 9 75 2 188 12 229
21 9 2 27 6 40 9 12 3 37 8 55 11 18 3 35 10 38 15 3 5 13 9 22 9 21 0 125 63
158 97 41 41 84 126 86 171 2 52 -45 126 -133 209 -123 116 -135 129 -157 160
-40 57 -60 137 -60 242 0 82 4 122 22 211 5 28 27 105 41 145 15 44 55 172 61
195 2 8 24 80 49 160 26 80 48 152 50 160 2 8 9 29 15 45 7 17 14 41 16 54 3
13 12 40 20 59 8 19 12 37 9 40 -2 2 1 14 7 26 7 11 13 27 14 33 1 7 17 59 35
115 18 57 33 105 34 108 0 3 4 11 8 18 5 6 6 12 3 12 -3 0 3 24 13 53 11 28
27 79 36 112 10 33 26 85 35 115 22 65 91 291 95 305 1 6 7 23 13 38 7 16 12
31 12 35 0 3 14 51 31 106 17 54 32 104 34 110 1 6 5 18 8 26 9 23 70 223 73
238 1 7 11 32 22 55 11 23 27 66 35 95 16 52 104 258 119 277 5 6 31 46 59 90
197 307 567 465 770 330 147 -97 188 -226 133 -415 -14 -46 -31 -98 -38 -115
-8 -16 -19 -43 -25 -60 -6 -16 -16 -43 -22 -60 -7 -16 -13 -32 -14 -35 -6 -17
-19 -50 -33 -85 -10 -21 -17 -42 -18 -45 0 -3 -4 -13 -7 -22 -4 -10 -10 -26
-14 -35 -3 -10 -7 -20 -7 -23 -2 -6 -50 -132 -67 -175 -7 -16 -13 -32 -14 -35
-1 -3 -8 -21 -16 -40 -7 -19 -12 -38 -11 -42 1 -5 -2 -8 -6 -8 -5 0 -9 -7 -9
-15 0 -15 -26 -82 -50 -128 -8 -15 -12 -31 -8 -36 3 -5 1 -12 -4 -15 -5 -4
-17 -29 -26 -57 -10 -28 -24 -63 -31 -78 -8 -14 -14 -34 -14 -43 0 -9 -5 -20
-10 -23 -6 -4 -8 -11 -5 -16 4 -5 1 -9 -6 -9 -7 0 -10 -3 -6 -6 3 -3 -4 -27
-15 -52 -11 -26 -21 -54 -23 -62 -2 -8 -14 -40 -26 -70 -36 -88 -45 -113 -59
-150 -7 -19 -18 -48 -25 -65 -6 -16 -17 -43 -23 -60 -5 -16 -14 -39 -18 -50
-4 -11 -8 -22 -8 -25 -1 -3 -7 -15 -14 -27 -7 -13 -11 -23 -8 -23 3 0 -8 -31
-24 -70 -16 -38 -27 -70 -25 -70 2 0 -3 -16 -11 -35 -13 -32 -57 -185 -69
-240 -51 -231 -60 -303 -59 -495 0 -161 6 -210 36 -320 35 -131 37 -135 85
-232 71 -141 186 -284 318 -393 26 -22 54 -41 61 -43 8 -2 14 -8 14 -13 0 -5
6 -9 14 -9 8 0 16 -4 18 -9 3 -10 186 -111 200 -111 5 0 20 -7 33 -16 14 -9
25 -13 25 -9 0 4 6 3 13 -2 28 -23 279 -96 372 -109 30 -4 74 -10 130 -18 48
-7 253 -19 340 -19 96 0 331 11 363 18 13 2 50 7 83 10 33 4 70 8 82 11 12 2
38 7 57 10 19 3 80 17 135 31 55 13 105 26 110 27 6 1 15 4 20 7 6 4 24 10 40
14 37 10 34 9 68 23 16 7 30 12 32 12 2 0 32 13 67 28 34 16 67 29 72 30 5 0
12 4 15 9 3 4 24 17 46 28 60 30 200 117 203 126 2 5 10 9 17 9 7 0 15 3 17 8
2 4 28 26 59 49 59 45 164 146 213 204 100 119 215 339 227 434 0 6 5 18 10
28 16 28 24 114 23 242 0 112 -2 124 -30 180 -19 40 -39 65 -57 73 -30 15 -82
8 -72 -8 3 -6 2 -10 -3 -10 -5 0 -24 -16 -43 -37 -117 -126 -153 -153 -224
-168 -40 -9 -44 -9 -88 -1 -91 15 -126 70 -121 186 3 62 5 75 29 146 9 28 17
57 18 65 2 8 5 19 9 24 6 10 47 143 48 157 0 4 8 27 16 50 9 24 17 50 19 58 2
8 8 26 13 40 5 14 11 30 12 35 4 18 8 28 40 135 17 58 35 116 40 130 5 14 18
59 30 100 11 41 25 82 29 90 5 9 12 31 17 50 10 42 9 41 16 60 7 17 39 120 43
135 1 6 5 17 8 25 3 8 21 67 40 130 20 63 63 205 97 315 34 110 64 207 65 215
2 8 4 16 5 18 2 1 3 5 4 10 1 4 15 48 31 97 16 50 29 92 30 95 1 3 9 32 20 65
10 33 19 62 20 65 1 3 14 45 29 95 15 49 30 96 31 105 2 8 9 30 14 49 6 19 8
37 6 42 -3 4 -1 10 4 13 4 3 12 27 15 53 4 27 9 57 12 68 3 19 9 66 20 170 15
151 6 375 -22 515 -8 41 -15 84 -15 95 0 10 -4 24 -8 30 -6 8 -34 95 -36 115
-3 27 -115 248 -154 305 -83 121 -244 295 -317 341 -16 10 -35 27 -42 36 -7
10 -18 18 -23 18 -6 0 -30 13 -54 30 -84 58 -294 151 -374 166 -14 3 -28 7
-31 9 -4 2 -20 7 -36 9 -16 3 -40 8 -54 11 -59 14 -107 21 -205 31 -67 7 -335
7 -410 0 -227 -22 -459 -66 -577 -112 -21 -7 -38 -11 -38 -8 0 4 -7 0 -17 -7
-9 -8 -19 -13 -22 -13 -3 1 -16 -2 -29 -7 -13 -5 -27 -9 -31 -9 -4 0 -27 -10
-51 -21 -24 -12 -49 -22 -54 -23 -45 -8 -372 -199 -406 -237 -3 -3 -23 -18
-44 -35 -92 -69 -327 -296 -401 -388 -22 -28 -55 -66 -73 -85 -17 -20 -34 -43
-37 -53 -3 -9 -12 -19 -21 -22 -12 -4 -12 -2 -4 14 6 11 8 20 5 20 -3 0 -1 9
5 21 6 11 13 28 15 37 16 66 38 139 47 150 6 6 8 12 4 12 -3 0 -1 12 5 28 6
15 12 34 14 42 2 8 10 35 18 60 16 50 60 192 62 200 1 3 7 23 13 45 6 22 11
42 11 45 -1 3 6 23 15 45 12 33 65 199 72 228 1 4 2 8 4 10 1 1 3 9 5 17 6 30
38 135 43 145 4 6 7 15 8 20 1 6 12 42 24 80 12 39 23 77 24 85 1 9 5 21 10
28 4 7 10 24 12 39 3 14 16 57 29 95 13 37 21 68 18 68 -3 0 -1 6 5 13 6 6 10
14 10 17 -1 3 4 21 10 40 6 19 25 82 43 140 17 58 40 132 51 165 42 129 86
303 93 375 2 14 4 25 5 25 7 0 13 259 6 305 -10 76 -19 120 -33 165 -20 67
-84 205 -95 205 -4 0 -8 5 -8 11 0 31 -141 173 -237 240 -40 28 -73 47 -73 43
0 -4 -8 0 -17 8 -32 27 -238 102 -254 92 -4 -2 -10 0 -13 5 -4 5 -25 12 -49
16 -23 4 -51 9 -62 11 -67 14 -128 21 -240 29 -80 6 -284 12 -288 9z"/>
<path d="M4264 9611 c-2 -2 -45 -5 -96 -7 -51 -1 -93 -3 -93 -4 0 -1 -25 -3
-55 -5 -30 -2 -73 -6 -95 -9 -22 -3 -67 -8 -100 -12 -33 -3 -67 -8 -77 -9 -21
-4 -108 -18 -133 -21 -11 -1 -21 -3 -22 -4 -4 -3 -11 -5 -68 -15 -27 -4 -54
-9 -60 -10 -102 -22 -172 -39 -180 -43 -5 -4 -19 -7 -30 -7 -11 0 -24 -3 -30
-6 -9 -6 -66 -20 -82 -21 -5 0 -15 -4 -24 -9 -9 -4 -27 -10 -40 -13 -13 -2
-43 -11 -67 -20 -23 -8 -44 -16 -47 -16 -6 -1 -15 -4 -115 -39 -107 -37 -283
-107 -331 -132 -20 -10 -39 -15 -43 -12 -3 4 -6 1 -6 -5 0 -7 -6 -12 -12 -12
-7 0 -43 -16 -80 -35 -38 -18 -68 -31 -68 -27 0 4 -4 2 -8 -4 -4 -5 -38 -26
-77 -44 -38 -19 -81 -42 -95 -51 -14 -9 -70 -43 -125 -75 -55 -31 -110 -66
-122 -77 -13 -11 -23 -17 -23 -14 0 4 -8 0 -17 -8 -10 -7 -61 -44 -113 -81
-82 -59 -211 -157 -246 -189 -6 -5 -38 -32 -70 -60 -149 -127 -380 -370 -517
-545 -37 -47 -71 -90 -75 -95 -5 -6 -17 -24 -28 -40 -10 -17 -21 -32 -24 -35
-6 -5 -70 -102 -134 -202 -20 -32 -33 -58 -29 -58 5 0 3 -4 -3 -8 -23 -14
-234 -445 -249 -507 -1 -5 -7 -21 -12 -35 -15 -37 -65 -183 -68 -200 -2 -8 -4
-16 -5 -17 -2 -2 -3 -6 -4 -10 -2 -5 -8 -28 -16 -53 -7 -25 -14 -49 -16 -55
-1 -5 -7 -30 -14 -55 -15 -57 -20 -78 -25 -115 -3 -16 -8 -43 -12 -60 -4 -16
-8 -38 -9 -47 -1 -10 -2 -19 -4 -20 -1 -2 -3 -19 -5 -38 -2 -19 -6 -44 -8 -56
-3 -12 -8 -45 -12 -75 -3 -30 -8 -72 -11 -94 -14 -98 -25 -465 -14 -465 3 0 5
-28 5 -63 1 -76 11 -174 25 -247 7 -30 14 -68 16 -85 3 -16 12 -55 20 -85 8
-30 17 -64 19 -74 27 -117 193 -496 217 -496 4 0 8 -5 8 -10 0 -15 113 -179
160 -231 8 -9 30 -34 49 -55 42 -49 121 -133 121 -129 0 1 26 -22 57 -53 32
-30 75 -66 95 -80 21 -13 38 -28 38 -33 0 -4 10 -11 23 -15 12 -4 25 -11 28
-16 18 -28 302 -184 439 -242 160 -67 389 -141 500 -162 14 -3 34 -8 45 -11
11 -3 29 -7 40 -9 11 -2 31 -6 45 -9 58 -14 215 -41 286 -50 27 -3 59 -8 71
-11 20 -4 88 -11 193 -19 19 -2 35 -4 35 -5 0 -2 32 -4 265 -15 177 -9 472 -9
610 0 47 3 119 7 160 9 41 3 75 6 75 7 0 1 26 4 105 13 30 3 64 7 75 9 11 3
42 8 68 11 57 9 69 11 122 21 22 5 47 9 55 10 8 1 42 7 75 14 33 8 65 14 70
15 6 1 19 5 30 9 11 3 31 8 45 11 48 9 184 47 279 78 53 18 98 32 101 33 3 0
19 5 35 12 45 17 69 26 75 28 18 6 53 20 107 42 34 14 64 23 67 21 2 -1 13 5
24 15 11 10 29 19 41 20 11 1 21 5 21 9 0 4 9 8 20 8 11 0 20 5 20 10 0 6 5
10 11 10 27 0 416 210 430 232 3 5 9 9 13 8 4 -1 17 5 29 14 12 9 60 41 107
71 46 31 87 59 90 63 3 4 28 23 55 42 53 36 56 38 95 71 14 11 40 33 59 47 72
57 208 180 275 248 116 117 262 280 295 328 8 12 18 23 21 26 22 17 210 287
210 301 0 5 4 9 9 9 5 0 13 10 17 23 4 12 10 24 14 27 9 6 113 191 155 275 17
33 34 63 38 66 5 3 8 9 7 13 -1 4 14 43 34 86 20 44 36 81 35 82 0 2 13 33 29
70 17 36 28 69 25 72 -4 3 -1 6 6 6 7 0 9 5 6 10 -4 6 -2 16 3 23 9 11 41 103
42 119 1 4 8 24 16 45 9 20 17 44 19 52 2 9 13 50 25 91 12 41 23 86 26 100 3
14 8 34 11 45 8 23 5 11 32 150 12 61 24 126 27 145 3 19 8 49 11 65 3 17 6
44 8 60 1 17 6 62 11 100 10 83 11 510 1 575 -4 25 -10 65 -12 90 -6 50 -13
85 -15 85 -1 0 -3 11 -5 25 -6 47 -49 215 -65 255 -12 30 -23 59 -26 70 -1 6
-7 24 -14 40 -6 17 -11 31 -11 32 0 4 -111 221 -139 271 -13 23 -27 42 -32 42
-4 0 -8 5 -8 10 0 10 -32 60 -55 86 -5 6 -21 26 -35 44 -51 69 -77 97 -170
190 -105 105 -155 151 -215 194 -22 17 -42 33 -45 36 -10 12 -101 70 -110 70
-4 0 -10 4 -12 8 -6 15 -209 125 -298 162 -25 10 -62 26 -82 34 -21 9 -40 16
-43 16 -3 0 -18 6 -35 15 -16 8 -37 17 -47 18 -10 2 -25 7 -33 10 -26 10 -214
66 -240 71 -14 3 -36 8 -50 11 -14 4 -34 8 -45 11 -11 2 -42 9 -70 15 -78 17
-109 22 -127 23 -10 0 -18 3 -18 6 0 3 -10 5 -22 6 -23 0 -91 9 -138 18 -14 3
-52 7 -85 10 -33 3 -83 8 -110 12 -28 3 -80 7 -115 9 -36 2 -65 4 -65 5 0 7
-633 18 -641 11z m246 -1034 c94 -24 164 -115 189 -247 10 -52 8 -357 -2 -410
-3 -14 -9 -52 -13 -85 -9 -65 -11 -77 -14 -85 -3 -9 -8 -34 -15 -80 -3 -25
-20 -103 -36 -175 -17 -71 -32 -138 -34 -148 -2 -10 -6 -26 -9 -35 -3 -9 -7
-28 -10 -42 -2 -14 -14 -61 -26 -105 -12 -44 -26 -93 -30 -110 -7 -23 -44
-153 -64 -220 -2 -5 -6 -17 -9 -25 -3 -8 -9 -28 -13 -45 -8 -33 -8 -34 -16
-55 -6 -15 -71 -226 -89 -290 -6 -19 -13 -42 -16 -50 -3 -8 -7 -19 -9 -25 -1
-5 -9 -29 -18 -53 -8 -23 -16 -44 -16 -47 -1 -11 -149 -455 -159 -480 -28 -67
-131 -352 -131 -362 0 -7 -4 -13 -8 -13 -5 0 -14 -19 -21 -42 -7 -23 -26 -70
-42 -105 -16 -35 -29 -66 -29 -69 0 -11 -143 -291 -175 -344 -19 -30 -38 -62
-42 -70 -37 -77 -221 -280 -253 -280 -6 0 -10 -4 -10 -8 0 -5 -18 -16 -41 -26
-104 -46 -263 -30 -341 34 -35 29 -75 96 -82 140 -3 14 -5 25 -6 25 -12 0 -17
291 -6 380 3 28 7 57 7 65 1 22 33 218 44 270 3 14 8 39 11 55 3 17 12 59 20
95 9 36 18 76 20 90 10 52 92 369 120 467 8 29 15 55 15 58 -1 3 6 21 14 41 8
20 13 40 10 44 -3 5 -1 11 4 14 7 5 20 50 21 71 0 3 6 21 14 40 9 20 15 38 15
40 0 3 8 31 17 63 10 31 19 64 20 72 1 8 14 48 28 88 14 41 25 77 24 80 -1 4
3 17 10 30 7 12 10 22 7 22 -3 0 -1 9 5 21 6 11 13 28 15 37 9 45 202 601 234
675 11 26 20 48 20 50 -1 8 107 271 128 310 9 18 18 37 19 43 1 7 8 24 15 38
8 14 29 56 48 93 19 38 43 80 53 96 11 15 16 27 11 27 -4 0 -3 4 3 8 7 4 20
21 30 38 87 144 219 292 318 357 89 58 184 77 276 54z"/>
</g>
</svg>
